<mxfile host="www.draw.io" modified="2020-05-07T06:35:32.991Z" agent="5.0 (Macintosh; Intel Mac OS X 10_15_3) AppleWebKit/537.36 (KHTML, like Gecko) Chrome/81.0.4044.129 Safari/537.36" etag="i_XpuDLNF2xQjTup_cvF" version="12.9.10" type="github">
  <diagram id="prtHgNgQTEPvFCAcTncT" name="Page-1">
    <mxGraphModel dx="1412" dy="851" grid="1" gridSize="10" guides="1" tooltips="1" connect="1" arrows="1" fold="1" page="1" pageScale="1" pageWidth="827" pageHeight="1169" math="0" shadow="0">
      <root>
        <mxCell id="0" />
        <mxCell id="1" parent="0" />
        <mxCell id="bM6j5mgx-3ahMwQYLQut-21" value="选择数据源" style="edgeStyle=none;rounded=0;orthogonalLoop=1;jettySize=auto;html=1;startArrow=none;startFill=0;endArrow=classicThin;endFill=1;strokeColor=#1A1A1A;strokeWidth=1;fontFamily=宋体;fontColor=#1A1A1A;shadow=0;" edge="1" parent="1" source="bM6j5mgx-3ahMwQYLQut-23" target="bM6j5mgx-3ahMwQYLQut-27">
          <mxGeometry relative="1" as="geometry" />
        </mxCell>
        <mxCell id="bM6j5mgx-3ahMwQYLQut-22" value="输入数据" style="edgeStyle=none;rounded=0;orthogonalLoop=1;jettySize=auto;html=1;shadow=0;startArrow=none;startFill=0;endArrow=classicThin;endFill=1;strokeColor=#1A1A1A;strokeWidth=1;fontFamily=宋体;fontColor=#1A1A1A;entryX=0.5;entryY=0;entryDx=0;entryDy=0;" edge="1" parent="1" source="bM6j5mgx-3ahMwQYLQut-23" target="bM6j5mgx-3ahMwQYLQut-36">
          <mxGeometry relative="1" as="geometry" />
        </mxCell>
        <mxCell id="bM6j5mgx-3ahMwQYLQut-23" value="&lt;span style=&quot;background-color: rgb(218 , 232 , 252)&quot;&gt;新建数据源&lt;/span&gt;" style="rounded=0;whiteSpace=wrap;html=1;shadow=0;labelBackgroundColor=#EEEEEE;strokeColor=#6c8ebf;fillColor=#dae8fc;fontFamily=宋体;" vertex="1" parent="1">
          <mxGeometry x="190" y="70" width="120" height="60" as="geometry" />
        </mxCell>
        <mxCell id="bM6j5mgx-3ahMwQYLQut-24" style="edgeStyle=none;rounded=0;orthogonalLoop=1;jettySize=auto;html=1;entryX=0.5;entryY=0;entryDx=0;entryDy=0;shadow=0;startArrow=none;startFill=0;endArrow=classicThin;endFill=1;strokeColor=#1A1A1A;strokeWidth=1;fontFamily=宋体;fontColor=#1A1A1A;" edge="1" parent="1" source="bM6j5mgx-3ahMwQYLQut-27" target="bM6j5mgx-3ahMwQYLQut-38">
          <mxGeometry relative="1" as="geometry" />
        </mxCell>
        <mxCell id="bM6j5mgx-3ahMwQYLQut-25" value="输入" style="text;html=1;align=center;verticalAlign=middle;resizable=0;points=[];fontFamily=宋体;fontColor=#1A1A1A;" vertex="1" connectable="0" parent="bM6j5mgx-3ahMwQYLQut-24">
          <mxGeometry x="-0.2667" y="-2" relative="1" as="geometry">
            <mxPoint as="offset" />
          </mxGeometry>
        </mxCell>
        <mxCell id="bM6j5mgx-3ahMwQYLQut-26" value="" style="edgeStyle=none;rounded=0;orthogonalLoop=1;jettySize=auto;html=1;shadow=0;startArrow=none;startFill=0;endArrow=classicThin;endFill=1;strokeColor=#1A1A1A;strokeWidth=1;fontFamily=宋体;fontColor=#1A1A1A;" edge="1" parent="1" source="bM6j5mgx-3ahMwQYLQut-27" target="bM6j5mgx-3ahMwQYLQut-29">
          <mxGeometry relative="1" as="geometry" />
        </mxCell>
        <mxCell id="bM6j5mgx-3ahMwQYLQut-27" value="&lt;span style=&quot;background-color: rgb(218 , 232 , 252)&quot;&gt;读取数据&lt;/span&gt;" style="rounded=0;whiteSpace=wrap;html=1;shadow=0;labelBackgroundColor=#EEEEEE;strokeColor=#6c8ebf;fillColor=#dae8fc;fontFamily=宋体;" vertex="1" parent="1">
          <mxGeometry x="400" y="70" width="120" height="60" as="geometry" />
        </mxCell>
        <mxCell id="bM6j5mgx-3ahMwQYLQut-28" style="edgeStyle=none;rounded=0;orthogonalLoop=1;jettySize=auto;html=1;shadow=0;startArrow=none;startFill=0;endArrow=classicThin;endFill=1;strokeColor=#1A1A1A;strokeWidth=1;fontFamily=宋体;fontColor=#1A1A1A;entryX=0.5;entryY=0;entryDx=0;entryDy=0;" edge="1" parent="1" source="bM6j5mgx-3ahMwQYLQut-29" target="bM6j5mgx-3ahMwQYLQut-40">
          <mxGeometry relative="1" as="geometry">
            <mxPoint x="660" y="190" as="targetPoint" />
          </mxGeometry>
        </mxCell>
        <mxCell id="bM6j5mgx-3ahMwQYLQut-29" value="&lt;span style=&quot;background-color: rgb(218 , 232 , 252)&quot;&gt;处理数据&lt;/span&gt;" style="rounded=0;whiteSpace=wrap;html=1;shadow=0;labelBackgroundColor=#EEEEEE;strokeColor=#6c8ebf;fillColor=#dae8fc;fontFamily=宋体;" vertex="1" parent="1">
          <mxGeometry x="600" y="70" width="120" height="60" as="geometry" />
        </mxCell>
        <mxCell id="bM6j5mgx-3ahMwQYLQut-30" value="WAREHOUSE" style="verticalLabelPosition=bottom;html=1;verticalAlign=top;strokeWidth=2;shape=mxgraph.lean_mapping.warehouse;rounded=0;shadow=0;labelBackgroundColor=#EEEEEE;fillColor=#ffe6cc;fontFamily=宋体;strokeColor=#d79b00;" vertex="1" parent="1">
          <mxGeometry x="610" y="320" width="100" height="60" as="geometry" />
        </mxCell>
        <mxCell id="bM6j5mgx-3ahMwQYLQut-31" style="edgeStyle=none;rounded=0;orthogonalLoop=1;jettySize=auto;html=1;shadow=0;startArrow=none;startFill=0;endArrow=classicThin;endFill=1;strokeColor=#1A1A1A;strokeWidth=1;fontFamily=宋体;fontColor=#1A1A1A;" edge="1" parent="1" source="bM6j5mgx-3ahMwQYLQut-32" target="bM6j5mgx-3ahMwQYLQut-23">
          <mxGeometry relative="1" as="geometry" />
        </mxCell>
        <mxCell id="bM6j5mgx-3ahMwQYLQut-32" value="" style="aspect=fixed;perimeter=ellipsePerimeter;html=1;align=center;shadow=0;dashed=0;spacingTop=3;image;image=img/lib/active_directory/user_accounts.svg;rounded=0;labelBackgroundColor=#EEEEEE;strokeColor=#1A1A1A;fillColor=none;fontFamily=宋体;fontColor=#1A1A1A;" vertex="1" parent="1">
          <mxGeometry x="80" y="75.75" width="50" height="48.5" as="geometry" />
        </mxCell>
        <mxCell id="bM6j5mgx-3ahMwQYLQut-33" value="MySQL" style="html=1;verticalLabelPosition=bottom;align=center;labelBackgroundColor=#ffffff;verticalAlign=top;strokeWidth=2;strokeColor=#0080F0;shadow=0;dashed=0;shape=mxgraph.ios7.icons.data;rounded=0;fillColor=none;fontFamily=宋体;fontColor=#1A1A1A;" vertex="1" parent="1">
          <mxGeometry x="424" y="320" width="62" height="60" as="geometry" />
        </mxCell>
        <mxCell id="bM6j5mgx-3ahMwQYLQut-34" style="edgeStyle=none;rounded=0;orthogonalLoop=1;jettySize=auto;html=1;entryX=-0.016;entryY=0.467;entryDx=0;entryDy=0;entryPerimeter=0;shadow=0;startArrow=none;startFill=0;endArrow=classicThin;endFill=1;strokeColor=#1A1A1A;strokeWidth=1;fontFamily=宋体;fontColor=#1A1A1A;" edge="1" parent="1" source="bM6j5mgx-3ahMwQYLQut-36" target="bM6j5mgx-3ahMwQYLQut-33">
          <mxGeometry relative="1" as="geometry" />
        </mxCell>
        <mxCell id="bM6j5mgx-3ahMwQYLQut-35" value="存储" style="text;html=1;align=center;verticalAlign=middle;resizable=0;points=[];fontFamily=宋体;fontColor=#1A1A1A;" vertex="1" connectable="0" parent="bM6j5mgx-3ahMwQYLQut-34">
          <mxGeometry x="-0.0721" y="1" relative="1" as="geometry">
            <mxPoint as="offset" />
          </mxGeometry>
        </mxCell>
        <mxCell id="bM6j5mgx-3ahMwQYLQut-36" value="&lt;font style=&quot;background-color: rgb(250 , 164 , 0)&quot;&gt;数据源信息&lt;/font&gt;" style="shape=parallelogram;html=1;strokeWidth=2;perimeter=parallelogramPerimeter;whiteSpace=wrap;rounded=1;arcSize=12;size=0.23;shadow=0;labelBackgroundColor=#EEEEEE;fillColor=#f0a30a;fontFamily=宋体;fontColor=#ffffff;strokeColor=#BD7000;" vertex="1" parent="1">
          <mxGeometry x="200" y="200" width="100" height="60" as="geometry" />
        </mxCell>
        <mxCell id="bM6j5mgx-3ahMwQYLQut-37" style="edgeStyle=none;rounded=0;orthogonalLoop=1;jettySize=auto;html=1;shadow=0;startArrow=none;startFill=0;endArrow=classicThin;endFill=1;strokeColor=#1A1A1A;strokeWidth=1;fontFamily=宋体;fontColor=#1A1A1A;" edge="1" parent="1" source="bM6j5mgx-3ahMwQYLQut-38" target="bM6j5mgx-3ahMwQYLQut-33">
          <mxGeometry relative="1" as="geometry">
            <mxPoint x="396" y="328" as="targetPoint" />
          </mxGeometry>
        </mxCell>
        <mxCell id="bM6j5mgx-3ahMwQYLQut-38" value="&lt;font style=&quot;background-color: rgb(250 , 164 , 0)&quot;&gt;表&amp;nbsp; &amp;nbsp; &amp;nbsp; 名&lt;br&gt;数据预览&lt;br&gt;行列总数&lt;br&gt;数据大小&lt;/font&gt;" style="shape=parallelogram;html=1;strokeWidth=2;perimeter=parallelogramPerimeter;whiteSpace=wrap;rounded=1;arcSize=12;size=0.23;shadow=0;labelBackgroundColor=#EEEEEE;fillColor=#f0a30a;fontFamily=宋体;fontColor=#ffffff;strokeColor=#BD7000;" vertex="1" parent="1">
          <mxGeometry x="410" y="190" width="100" height="60" as="geometry" />
        </mxCell>
        <mxCell id="bM6j5mgx-3ahMwQYLQut-39" style="edgeStyle=none;rounded=0;orthogonalLoop=1;jettySize=auto;html=1;shadow=0;startArrow=none;startFill=0;endArrow=classicThin;endFill=1;strokeColor=#1A1A1A;strokeWidth=1;fontFamily=宋体;fontColor=#1A1A1A;" edge="1" parent="1" source="bM6j5mgx-3ahMwQYLQut-40" target="bM6j5mgx-3ahMwQYLQut-30">
          <mxGeometry relative="1" as="geometry" />
        </mxCell>
        <mxCell id="bM6j5mgx-3ahMwQYLQut-40" value="&lt;span style=&quot;background-color: rgb(250 , 104 , 0)&quot;&gt;数据导入算子&lt;/span&gt;" style="shape=process;whiteSpace=wrap;html=1;backgroundOutline=1;rounded=0;shadow=0;labelBackgroundColor=#EEEEEE;strokeColor=#C73500;fillColor=#fa6800;fontFamily=宋体;fontColor=#ffffff;" vertex="1" parent="1">
          <mxGeometry x="600" y="190" width="120" height="60" as="geometry" />
        </mxCell>
      </root>
    </mxGraphModel>
  </diagram>
</mxfile>
